<svg xmlns="http://www.w3.org/2000/svg" xmlns:xlink="http://www.w3.org/1999/xlink" width="400" zoomAndPan="magnify" viewBox="0 0 300 299.999988" height="400" preserveAspectRatio="xMidYMid meet" version="1.0"><defs><clipPath id="09713fe8fb"><path d="M 0.914062 0.914062 L 263.085938 0.914062 L 263.085938 263.085938 L 0.914062 263.085938 Z M 0.914062 0.914062 " clip-rule="nonzero"/></clipPath><clipPath id="b9c02bdf41"><path d="M 132 0.914062 C 59.601562 0.914062 0.914062 59.601562 0.914062 132 C 0.914062 204.398438 59.601562 263.085938 132 263.085938 C 204.398438 263.085938 263.085938 204.398438 263.085938 132 C 263.085938 59.601562 204.398438 0.914062 132 0.914062 Z M 132 0.914062 " clip-rule="nonzero"/></clipPath><clipPath id="b77a59e359"><path d="M 0.914062 0.914062 L 263.085938 0.914062 L 263.085938 263.085938 L 0.914062 263.085938 Z M 0.914062 0.914062 " clip-rule="nonzero"/></clipPath><clipPath id="52279b62e9"><path d="M 132 0.914062 C 59.601562 0.914062 0.914062 59.601562 0.914062 132 C 0.914062 204.398438 59.601562 263.085938 132 263.085938 C 204.398438 263.085938 263.085938 204.398438 263.085938 132 C 263.085938 59.601562 204.398438 0.914062 132 0.914062 Z M 132 0.914062 " clip-rule="nonzero"/></clipPath><clipPath id="0968ecbc19"><rect x="0" width="264" y="0" height="264"/></clipPath><clipPath id="2b0f8aa983"><path d="M 56 35.425781 L 208 35.425781 L 208 227.054688 L 56 227.054688 Z M 56 35.425781 " clip-rule="nonzero"/></clipPath><clipPath id="ec493aabd1"><rect x="0" width="264" y="0" height="264"/></clipPath></defs><g transform="matrix(1, 0, 0, 1, 18, 18)"><g clip-path="url(#ec493aabd1)"><g clip-path="url(#09713fe8fb)"><g clip-path="url(#b9c02bdf41)"><g transform="matrix(1, 0, 0, 1, 0.000000000000003553, 0)"><g clip-path="url(#0968ecbc19)"><g clip-path="url(#b77a59e359)"><g clip-path="url(#52279b62e9)"><path fill="#7bb2ff" d="M 0.914062 0.914062 L 263.085938 0.914062 L 263.085938 263.085938 L 0.914062 263.085938 Z M 0.914062 0.914062 " fill-opacity="1" fill-rule="nonzero"/></g></g></g></g></g></g><g clip-path="url(#2b0f8aa983)"><path fill="#0c346c" d="M 131.488281 35.246094 C 130.414062 35.246094 129.414062 35.710938 127.914062 36.605469 C 127.914062 36.605469 100.308594 53.515625 60.230469 70.5 C 57.691406 71.570312 56.046875 74.039062 56.011719 76.757812 L 56.011719 131.710938 C 56.011719 201.75 129.234375 227.421875 129.234375 227.421875 C 130.699219 227.960938 132.347656 227.960938 133.8125 227.421875 C 133.8125 227.421875 207.035156 201.75 207.035156 131.710938 L 207.035156 76.757812 C 207 74.039062 205.390625 71.570312 202.886719 70.5 C 162.773438 53.515625 135.132812 36.605469 135.132812 36.605469 C 133.597656 35.675781 132.523438 35.210938 131.488281 35.246094 Z M 166.492188 106.96875 C 168.207031 107.148438 169.851562 108.003906 171.101562 109.433594 C 173.535156 112.296875 173.175781 116.621094 170.28125 119.089844 L 128.019531 154.808594 C 125.339844 157.058594 121.40625 156.953125 118.867188 154.519531 L 92.445312 129.027344 C 89.691406 126.382812 89.621094 122.054688 92.230469 119.304688 C 94.875 116.550781 99.238281 116.480469 101.992188 119.125 L 123.945312 140.328125 L 161.414062 108.613281 C 162.988281 107.289062 164.773438 106.789062 166.492188 106.96875 Z M 166.492188 106.96875 " fill-opacity="1" fill-rule="nonzero"/></g></g></g></svg>